<mxfile host="Electron" agent="Mozilla/5.0 (Windows NT 10.0; Win64; x64) AppleWebKit/537.36 (KHTML, like Gecko) draw.io/27.0.5 Chrome/134.0.6998.205 Electron/35.3.0 Safari/537.36" version="27.0.5">
  <diagram id="mw3M-0iON5T5pTipbwLT" name="Page-1">
    <mxGraphModel dx="1028" dy="611" grid="1" gridSize="10" guides="1" tooltips="1" connect="1" arrows="1" fold="1" page="1" pageScale="1" pageWidth="850" pageHeight="1100" math="0" shadow="0">
      <root>
        <mxCell id="0" />
        <mxCell id="1" parent="0" />
        <mxCell id="3Kr9bvv33sOtzox7E3u9-2" value="LangGraph框架" style="text;html=1;align=center;verticalAlign=middle;resizable=0;points=[];autosize=1;strokeColor=none;fillColor=none;fontStyle=1;fontSize=15;" vertex="1" parent="1">
          <mxGeometry x="330" y="70" width="130" height="30" as="geometry" />
        </mxCell>
        <mxCell id="3Kr9bvv33sOtzox7E3u9-3" value="" style="rounded=0;whiteSpace=wrap;html=1;fillColor=none;" vertex="1" parent="1">
          <mxGeometry x="740" y="120" width="90" height="160" as="geometry" />
        </mxCell>
        <mxCell id="3Kr9bvv33sOtzox7E3u9-4" value="MCP Server" style="text;html=1;align=center;verticalAlign=middle;resizable=0;points=[];autosize=1;strokeColor=none;fillColor=none;fontStyle=1;fontSize=15;" vertex="1" parent="1">
          <mxGeometry x="735" y="170" width="100" height="30" as="geometry" />
        </mxCell>
        <mxCell id="3Kr9bvv33sOtzox7E3u9-13" style="edgeStyle=orthogonalEdgeStyle;rounded=0;orthogonalLoop=1;jettySize=auto;html=1;" edge="1" parent="1" source="3Kr9bvv33sOtzox7E3u9-5" target="3Kr9bvv33sOtzox7E3u9-11">
          <mxGeometry relative="1" as="geometry" />
        </mxCell>
        <mxCell id="3Kr9bvv33sOtzox7E3u9-23" value="" style="edgeStyle=orthogonalEdgeStyle;rounded=0;orthogonalLoop=1;jettySize=auto;html=1;" edge="1" parent="1" source="3Kr9bvv33sOtzox7E3u9-5" target="3Kr9bvv33sOtzox7E3u9-7">
          <mxGeometry relative="1" as="geometry" />
        </mxCell>
        <mxCell id="3Kr9bvv33sOtzox7E3u9-5" value="推理节点&lt;div&gt;LLM Agent&lt;/div&gt;" style="ellipse;whiteSpace=wrap;html=1;fillColor=#dae8fc;strokeColor=#6c8ebf;" vertex="1" parent="1">
          <mxGeometry x="110" y="260" width="120" height="70" as="geometry" />
        </mxCell>
        <mxCell id="3Kr9bvv33sOtzox7E3u9-7" value="" style="shape=image;verticalLabelPosition=bottom;labelBackgroundColor=default;verticalAlign=top;aspect=fixed;imageAspect=0;image=data:image/png,iVBORw0KGgoAAAANSUhEUgAAAMgAAADICAYAAACtWK6eAAAAAXNSR0IArs4c6QAAIABJREFUeF7tfQmYHFW1/+9UzUySCSTpngkIAkrSNQHiE3ko6nuKO4IiCCIuCLKadHV2kgBhC0sAEQiGdE+C4oKKigJ/QEAExOfyfCqKCIFkqkNEEIFMV2dfZrrr/Od298TJpGe67q1bPd2Tud/HJzjnnHvuuXX6buf8DmGkBbLA/l97ZmxX8z5HEfJHg+gQgFsAoxXgCICJAFoBiH/fDGDTv/+hTjBeIfJeKfwvjJfMbVv/+PqCI7cGUmiEWasFSKu0YS5s3DdXRRtyjUdzHkcR0X8COAqABUCXHbsB/BHAE57HT2xo3PR7THun+P9G2hBZQNfEDpH64Xfbesfqfb2d5ufAOBeE94bf4249bAfwa2b+pUne/Z32YWuq3P9e392Ig5T7BO5mM9LpHE+gLxNwEgOjauBLYQCPEvjmjN32eA3os1eoMOIgfaZ54oq1Vp69ODx8EYT9a/gLeI4IN2bi1vdqWMdhodqIgwDYd/kLLU1GwzUMXACgoX5mlv5F4OU5NLVvtN+SrR+960fTvdpB3vrtdaM3b8/NY+Bi4Sf1M217aLqFCUuy3ViKWdbOOh5Hzam+dzoIM7Wk1p7JxNcCOLjmZkVdoReJaH4mHrtPXcQIZ18L7HUOEmlP/zcxrwDwtuH6KRDwYAPR+a/HY28M1zFWa1x7j4MsZiO6X/pmAHOqZdwh7ifDjHOyCevBIdajrrvfKxxkwtJ1E4xR+Z8A/NG6ni015b/p2pa4fBhpChYY9g7Smlo9xYP5KIC3KNhnmLDwnxrJOHFkyyU/ncPaQSKp9AkE/nGd31DJz2p5jlc9w/vEhulTntElcG+QM2wdJJp05oJwS5UmMUPAc8z0DJP3gsnGmpzBG9jApvxObNoyy1o/Mblqny7PnNjQQBMZRoQ8PoBFUKPBbWB8BMCkKui6GUzHu4nY/1ahr2HRxbB0kGjKmdezaogDeSiNgPUA3eMBDzSw+fT6xKGvBe0ousw5iEz6MBN/EMBxAN4cVOYA/FsNwomdcetXIckfVmKHnYO0pJwEA8tDmKV/9FwN/9Tz+P4NM9p+HYL83UROWN5xLJk0jxgnh9EXEZ1a7r3kwJWvNnd1bz0sb9D+xBgHYByIxSPqPmDaxoa3GYzNJmhLHl7WzPPazpmHvRqGjrUgc1g5SKTdiRMjpdmwLzHRxdl47Eea5foSJ+LDPM+by0DcF4MMEfPDgPHnkgMcDkD8c4iMiBKtiDp+FkRrifk5j41fZxOTf6sgp+ZYho2DRJPpC0B8u0YLd/YYZ3HGtpIaZSqL2nflmtbGnDGDCDYXE7FqvW0D8BsGniQPP3NnWKtqXeFy+g0LB2ltdz7oMX6pKXFpOwNLzVH5GzrPO0xkAdZUE4f9PDUuB+jLNaVYRWX4t8xIZSd234PTp3ZVJK8Rgrp3kInJdW/KU+7ZUmprMLMSnjU9OnV9IpYOJih87pZkx6lMdAeACeH3prWHNxi4wyAvmYlP+adWySEIq28HEeEjE9O/1ZTpd4ebQ6KeomFb2te8mWHcBcaxIXwbYYvsBuN7Juj6Wv5BqmsHiaScJQQsCjiT24gwvZ6Tj6Ip524Anw1oh6Fkv8fwcF3nDOsvQ6nEsDqDRJPOcT0rhwghUW7iPcPLGx/Jzpwstmh11/ZvT+/XzXwdgPPqTvkyChNw184c5oiH1VoZT12uIOKufkd+WxrgA9QNSX/3qPtDG+KH/11dxhBxLnNGRRoxl7iwetZzolc5A24k4NLMG7F2LCZviCy8q9u6dJBo0lkMwpXKxiM82wj6aD0G70WTzmkg3AjgUOXx1wUj/83w6Jyh3nbVnYO0rnz+AM43rguANPJyrqnrHZvOn+rWxXdSUnLCijVHGp4h3mT+u570DqhrnsGXZO22rwWUo8xedw4SSTnfJeAsxRFvZ6JjsvHYc4r8VWcrnDOAr4JZvHvU3XzpMRjd27h161lDgTpZVwafkOx4h0H0tKrRCXRKxo79P1X+avIVACW25S9kYgEosU81+67NvnhN3qRPbpxmra2mfnXlINFU+h6AT1UxEINvy9pts1R4q80TaU9/npjFOWMoACVeBmM1iDYzeIvAFCZQlghNXMQbjhRwh1ngEBdgV6vZskTe8Zn4FAHPWpVWNw5SeBRj4xVFqzjNO0Yf+cq8g0VQXc221lT6aA/89SqfM/5JwJMM/E8e/MuNdtuLMgaKJtMHkwGLmT8AQKQ0/5cMvwLtNjBOcRPWLxR4pVnqxkGiyfTVIL5ceoRi487GMZnE5D+p8FaDR1w85PONXyXgzGr0J95/mHGnYRo/6pw++SmdfQq0++59xhwPT2AZ0yd0yu4ri5m/mE20/TAs+b1y68hBnNdU4ECZeEk23nZZ2IZUkV8EruuezyDxnjFGRYYkz7dh8A/d6W2PSfIpkYs4OY+6z2fQ9FASwJi+4iZi31BSzidTXThIaU8u/WshfilHmWPf+uq0A0XodU21SLtzBjGur8I5YwMDqZyXu2XzjMMzQ2KEu1c1tWQap7NHi1R+5AbR2WPik7Pxtp+FNa66cJBoKv1rgN8vawRi+nImEbtTli9M+pblHe9mA7cB9K4w+wHwKoFuGGU231ErPxAH3fLymG2jdiZAfAmAqKbxbzcM41jdW8W62WJFkh1fIKK7ZI1JwNMZ2xJFbmqiiZxzNOAmAJ8LWaFtBCzJ2JaI0arJNj71UsRA160B3rP6j6szn88fs3HmYet0D7gmV5BoynmPAC5gwsnEUPrICXR2xo59V7fBZOWV4sYuATj8cxDjWw1N5qI3Lpj0uqyeQ0Hfmkx/yCMWOS3Bw2YIz7px6+26x1ETDiLKDzQY5meJ6CPgwlVh0CSgja5tBZUR2NYtyfRZTPxVAG8KLGwQASSuaA1vdr1iXkXbnVvAmBvURkRIZeJWIqicvvxD6iDRFc4R8AqGOUPvLQ7f7tpt03QaSkaWOGd4BiV7QKSPluFToH0RxAvdeNs9Crw1xVLKkPx+0O+AwSdm7baHdA1uSBwk2u6czow4AQIDSn8z8F/udOv3+gUPLnHC8hffYhr56xj4Ysh9b2Hw1UMZxBfG+CK3rf0PMj1xI6WCrNKr0gY2jSOz0yYLmKbAraoO0tKe/jBz4aU4zNIDrmtbLYEtIyFAPI7lmpsvYyoU4gm3Ma3syvPltZRUpHPA4gBvoksAcLwjgNxHXds6PgD/LtaqOMj4VMckg+iWsEDQdjcE/8i1276gwzgVZTBTtN05GzCWBEveqtiTCOP9H/aQqFf4nMoj/DdFKVNS7ACU4VjJw6czM6z7ZfotRxuqgxRLKBtXACSCBJuCKuuHv1q3V6VCPCI/40g/egWgccjDAh2THUCHqrOKGC8QizCY/RQ7f9nNwQoKwhGag0RSHdMN0NXVBjlj03iLrv1nuYkR5wzDzN8ExmmKE+eXbROAK3tu4271yzDc6EqXOEEA54T9rg5iF+0OUipW84DKy3eQgZR4t7m2NVaDnD1EFM4ZY5tFsOScANmMflTLE3B7d1PXZfWW9ehncLI0Le3pGcx8myxfiX57Hk1vDlIBWKuDRJc7U2FAXLENVbGa/3VtS29KarF027lgXKs5jmjPOSd+ggyekZk2ZbXiBzEs2aIp5wkAH1YcXKBVRJuDRNs7PgMm8XIdyi+4H+MQaEXGjmkDeRbbKTLy94T9nsFAGox5I/UEy89y6TwifjSa/XwH/Wg6m3eMPkQ1F0iLg2gCcFMY++4sxHRZJhFbElgQgGJQIT1SzKALre315wy/lg2y1SJghioIeSAHiS5zxqEBoizACX4HGiYdEc/OxNuWBe1j/G2rDzVNU9yg6Io43UMlsdp1ed2XDVkIelAjDQF/NOW8pPiI+LxrW1NVVFZ2EJHss2l77n8AHKPScSg8jPPdhCWC3wK1SMpZ3pNLojWm598K0eMweLY73Xo+kJIamEu3RPMAfh9AUwBkCXiICHfUYgWqlnbnTJEJqTJ0j/moDYm2v8ryKjtIJOXcT8BJsh1WomfgzwB+0gMUMFv68Y3wOTduCZzaQC2ackRikdbVo5bOGf6uqvm3hmHODSvPQnWCoilHQDYprAZ8k2u3LZDtV8lBWtqdJDNs2c4GoxeOIc4QbiL2c0EXTTkC3kXqJVXH62mhUE3e0IkNuwWMK9yEtVSnvVRkFR5ud5hXgnChf37+EdhY6CZiL/vnCY9SNbsUwGuubUlD1Uo7SAgFMv8gYETduLUbELWSg2jAvWpJdhzORHq2P0wruxvyl22eNqUzvE/Gn+TgD7d8kzHKu7oWigqprvDkGR/NzJgsrox9NykHaU05J3mAAF6T4iunjYgtAtHVmXhMBKbt0aKp9DqA3+p7JAWlggPDld5yAiEv1lLc1ISU8wEDECExCtuSPazfyYwrsxNjK3E65WXmRidtNOWI1XiOgsxbXduSyjvx/aG3tK85htn4jYaYqhwRzq1Uj0PJQTQEqAVxEHHOMDzMr4W4qVADRBmrmXi+zrwLmY+9dfnaNs/w1sjwlGj/6NrWu2X4fDlIZOXa8ZT3xENN0My4TjCd7KeQfTTliLIEUi/yBnByp209IGOA/rSK8T81k59RnKv8ZQDND2IHn7y/ZKLZQ4F1HE05f1C5QW3eMbpZ5tHQl4NEUx0rAfqKT6OVJRMgCpTPn+i3praKgzDjpKCv0QpnkG92m94lNXHOKJbBvka8cwaZKwXeqttAtQSG5/EHZOrcV3SQUlh3sJrXRD904zGpLDslByH+VFCMJN8Owvg9GBfUQn5GS6rjowyIyrfiLWOo2iYwX+Em2kRCXOgtklrzfoLxa9mOCDQrY8d8Bz8O7iB3r2qKdjaJA6sySDExfpCxY2eCiGUGo/JqyhocxO8ZhE1jQnba5I0yY9JNO3HFWsvzvJt7rsg/pVu2sjzGao8wfYNtiUfk8NriJxui+x20QTb2TxbYYVAHCYKHKyxTcI71sbNUSmnVuIPkXNtqDG/2B5dcOhNeAWAmgCHTY1Atme/zuGHuhhmTRHhIKC2a7HhIHv+XHnft2Mf8KjSggygeVnf1S8D3M7alDMas5CCgT2TtmAgwVG5+t1iubVXcniorMQijeM8gkDhntIYhX7dMBq4bY45dEga6Y0vKWcSAbHDqS65t+X4+GNhBUs7/AZC6Eutj3MB5GSMOsvun2rJ87UfY8ER2YVDAi38w0UUw6BHK8VQQi1qPx+l2jH7y/smEi7Jx6wc6+ynhjkmDA44b0zDm7+ccusOPLmUdJJJyvkTA9/wIKEOzhU1jatC0VxUHAdMJvaEqirqj1lYQje8Z25lwdTZu3dDfNpH2jhPBtLRn1Y+p2s0XH+P3hmnM0hXfVULJkXoZF3rKpGWXdZBoqmO16o0IEZ2aicfu82WwQYii7Y6odHSQjBzWsMXyeUjPu7bVIKObLG2fuClxzggCeMHEuIsauhd0TjviXwPqUTz0zgAgzjZh5sAIFX4MpgVB47v8/pj1HzPnjbdnZ05+1s+c7OEgxStDUqsfwbTSTcRELYjAbW9eQaLJ9AUgFuDTgc4ZIgDU8DiRmdEmHtV8NQED22Q0XstgLfM4aKeMm5HH1e4sSySOSbdSPpLKTeJ7e3CzxBGiYtvDQXqAo0U07ccrcu5J0GmMyk/SFcymsoLo2GL5XEE817ZMBRsNyqItborxOgwscqfHvi17vd6rYMvKNYexR8vB9BHd4+wrT9Rw8cBXZFutb6jEd0VTjqijKJfmzfi43xJuuzlIa2r1FA+mEmCA7loc0ZQj6hG+WWpyCMf3jwqW4hdh9kXgiUrBitwDJ2PIyh6IXuM5owvgZY1bty/WVTI5knQ+RVQo29Cma7wDyHkeTBfKniGjKUfEZMnpRnyaXzzj3RwkmnTuAOFcBUP8zrWt9ynwDcii5CAGHxe0vJjffa2Oa161/IzyJusBlnjQYJq3PhFL65yHXlnRpDMXBIExFXZJ6l8Q85xMou0FP+OIJp0XQDjMD20vjUzM3i4HEfXk8pQb+BA3iAYM88isPelvMkpWoh0qB/H7/hPUQUrvGdcGjZsSEcTENFP2l7eS/cv9vZBMljOvBXHoyPkiZ39njq+ohEEcTTniDDJOZjwM79isPUVEpldsuxwkmuyYDSJpFD8CfpaxLe2hDtGU808AB1YcQV8CDStI2FssbecMYCMYV7nrX7kNiz+Uk7JTQGJhIzKQZECUfg6zbSbg+n3HNCwt+25RvHnrllbAw9v8xtD920FSzsMq6CRM9L5sPPY7aSUrMKisIAT+WMZuezyILmFtsQrnDBTeGnTk8T/SbXpnDXUEccty52QYELFgk4PY3Afvy6Vr4R/3pR2/0pls5iG9pWxoNN/ktwpXXwfZqgDMFfjFfCDjqKwgokLVQBmKPiahQKLbQXSeM/qN4cpxYxpu9Psi7Hf8KnSlNOyrQj+fMJ4CaHZvPpFqRK/M9rjgIKUwBvlfXqbPu4nYbl6tYuByPCoriEH4UFC4msL1Zt6oeED0Y+RIKv0VA3xtaADehFfY44XZRJt0iWxd89QrZ59lzsSmBr42aN6QT71+4lFuocENolKwLIrNJte2xvvsp5hbHk2lbwRYGhIlzJBvlRXEYPpwZyL2pN/Bl6PTsYIUzhmE28D4jyC6+OYVv6wmZg1FVa3+OooqUTC9ZaFVD9u9wz8qZBWuc23LN1pO0UHanb/JTqYAJsjYVjgl1IqwP9KHdC0riE9Uk3IriD+8Kd+fvQIh/wg5WuDOssQb0pC2llT60wy+RUsFW70jkao+RVjmjIo2wFdkY189mfmibKLtRr26/1taNJV+VRY4TscKonKLVcXSCH7MvYOJb27asv16XY+FfjotS7PyqcZIbtxcIhIlsPdVlqOTkbDYjVvivOSrkd97//7SZAK+fGnSj6heziDRdudceLhOQ2mEnxDzlWzQIcxYogFR/jUQLnXj1rdU7K+TZ79vvLh/risvbKTyCK1TlR4INrmbTiphXUnXcvNzSA0yslrfYsHg4+CJEAwKWrz+r57Hs/sDCUTanTOIcT2Ag4PYEeC/GUSzg15eBNOhyD1hxZojTc/4ehXeTwZU1xiVHycTL0iKSInPuLYVpAppRXvX+Barov6VCESQHjNd6q6ffMdAKckCIHzz9u75DBLVc+UC8vopwMD/88AXbrTbXqykW9h/F+8nbOBrQbAO1HTkv7l2m1RNSVLB2Q2aTutncEoriIZbLJ9nED9DGIimG4xlxuj8VX5/yVpXPn+Al2+4HqCzAqJadoFxGzcY1ww14ARWPtUYzY2ze6KNRUZj2PknxblQSMcQK4jI4ZaqKR32AV2MZcjOID5vsZQ8hPlh0zTnrJ8+2VHhb13u/KdnQNQ/CVpmLsOEy7Nxq11FD5084765Kmp2NS4mkEgMC7UR4axKiJ79FRAO0iG71FWj1PJwcpBiQCESfnMQKn0l0ZTz2Z5XaxGCfkgl2gp/f8EALg6KRhlQhwJ7NSCMTCZLNtpZOIiA+pfKXNOVVjuYYYeJg2wg4it1VL0qZ6uWZPpSJl6kECK0uzjGYzAxpxaK+rQm0x/yDP667LucHycdbY4dK4uuQtGkI64D9/fTQS+NCoy8jPzhsMXqCS9J5rzclWGXWCukKSC3RMcVKgHtXaZ3xVAHQYr5DyNMh4hmZuKx5TLfIindFhnGu3QhUwykbL2uID1XmE+CaFa1AZ0ntDtHGczLAAqauLaRwUuydpu4ZRrSJh5gu/cZuwTMszUpsp2JjpGZG7HFkk9tBXwnvasOTEWvKr6klxvWi0Q0Xweii6rNSiuvOJ+Ij1sKGb9Mny+CeKHf1NQgOlfibW13PugxBKaWXH5QGcHiPGiOyv+n3xtE4SD/kH2M0oGBW8kodeQgW5iwJNuNpZhl7aw0rmr8vfh+kpvHgDifBHo/AfA7z/ASG6ZPeaYaug/URyFtYKcpgLHPCaoHE+7Pxq1P+5EjtlgqlZzOztgxaUQ7Pwr10tSBgzCIvtsIXPR6PPaGzNiqRavx/YQBvtMwc5cMiq1VhYGVIgy+AyAQLplflHdxSJdOegdjXthFKZUcREc+iN93EE0lp6vwTSGS7PgCEd2loa/tBL5u3zGNNw1lolYkufZ9RJ4oBRioDorh4yxNKgjZApA4a1uXajD4gCKGzEE0JkyFaR9Z2dGUI1V+YlD5hFcIWCT76Car82D0E9pfeGtPwtRDPQlTRwSQ+5K3s+EdG+YeKsoolG0USXUsk37FZL7PTbSdGkCxiqxKDlK9UJMhLX9Q0Xj9CRazEd0vrb3opgpyo7TugzAIlJWGvPH7YJjCfLtrtw2I0kItqfRMhrgelGqOa1tyYF1S4gtJXNLYvFW8xaovB7mbzWhnOkTkk6FL1CokqRn5p2Qfu/t8jnkD+amd9mFli4JSNJk+HsTSNTXc1q5ROH1ql+R375t8xEF8m6oyoSo8TmXJfSmGLFGrFKMmygSOkVO5l5rude3YZ8rxkoCjMUFrZQUboHd22rE/y/L5pVcBrx7qlFu/YxsKOp9nkM4Av8SFYRXC+MEXuXbbt6s5zlKKr3JVgYEO7CXQBvkDHIOmZe3Y7WEZYcRB9FrWl4MYmEoePiQuYWTRCsto+1cPmBN6rcI+HUdTzlIAcxQtVxY+t9dBpCN6ZR5bVBQe2WKpWG1gHj8OQqZ3eGbalNUiBL2xq0nAFYnS3wFR7OnePLwFVUnUKhadFaUelJL5GHxi1m4TN2O7WhEXK+U8yMCJklOy1bWt0ICMVcpAj2yx9DhIrxQB4UOmJ3JGguafiL3XUjaMq8JO1Bp/2+pDTdMUxXGkIwhEHF3Wtj68h4NE2p2LS/nPUj6iA8lwoA6jKeevAKTSI3WEwOjAxZIyYpWIZVaQ/ipFk85pMLBUtuJXmaF1gmmRm4h9I8xhR5IdC4noqyp9eJ751r6VeQsriOpBvScP/1bXtuaqKFKJJ5Jy7lfAsf35aHPsZ2Rj/vvqohNZsdIYq/n3IA4i9BTxXZu25S7ugQURKbJB2yoimhUUJnYgJQq6bs+tA/AmWUUJfHnGbhOo+4XWF5v3aYW92yaTu968PjFVVPnR2gL8CrhEdKVs3H+v8sNxBSl9MNsrTVDvGWQwutbbVh/omab4gAIHDQL0NdeOLaykl8rfI0nHJkJSgXe3N75dDlLKTtvlOb4FM89xE20iylJrEwfFhq4m8SsgVfuhjxIi7/tS17Z+IqPYiINM8VVhrHg+4esB/qSMfcvQ3uLa1oUBZZRlV7kJLQnalc6xy0Fal69t8wyv7Gvi4MrT3107dmgoA0ym54M4UOIOA79iwrwNcUuskBXbcNxi6VxB+huwBHx+s+x5sa8cw+w+MIwo4aji9yMyKzO2Ze+2xRL/EU054vQvXaiegTOztvX9il+fAoHqBUL/rgi4i3O4qBJu7XBcQQ665eUx20bv2FbJ/H62WAPJCAh0d6FrWwLHV2vbvz29Xzfz6wpCX3Vtq1Afc/cahe3OlWAslhdI/xo3xpwUVgh0qTS12E8Gj/9iumZcs3ndQLqOOIi/LVa5b6SU1PQLAO+R+YYEqF3Wtk6R4fFLqxKtLmSzabwlO23yP3avcls8gAlUdelGTJdlErEl0owSDC3tHbOYSThwUKAxEQgpclp+useWwWc+SNjQqxJmqUhajRWkV4mWZMfZTCQZZiKPeFhx0CWCaDL9ORD/yC/9LrpS7Zs966S3p29VTJLfZnLD5PWJQ1+TVkaCoQg01nR1T8xPQoJtAFJ63DTI7gvkNrKCqK8gwsgt7elTmPleybl50bWtUMq4+f1x2ENfpmVuIjZ7DwcpVbsVt0ejJQcpyH/h2tbHFfikWUqHaVF0VEN/fFNvbXG/aPf1tIIcuPLV5h35raLE3qAtyBmkzwpyKhPdU6mvfn+XKmojKRvRVMdvZNFeRK5L1rbeuYeDiM6jSecmENSu3kTl1YSlcI6RHXaRPtrufBwMEaR2uJqEEhfjdTKwgPP4Cww8V0lWPTmI319RLQ5SYyuImMdIyrmOgEsqzWn/vzfvGN1c1kEK9bDzxkuqiH3lgr5klZOlj7Q7cWKId5yoLG9f+mK4NiZWkjHiIOUtVGtbrOIPvlrOkwd8sKyDCKEtSed6JgjYfZW2kZjfm0m0VSyGqSJ8IJ7xqZciBnZeJZ1CrKDEiIPUj4NMTK7aJ09Nm2WnmRmJAR1kwtJ1E4xRuZeVS/syXucG4xhxVSarWFB6AYSc93iphlfegVSpq5Rb32cQ5iOC/qi1JDsUziDhPTb3TqBK+kRPFMctAzpIaWm6GsSXq36wBKzt8nLvDhufdiD9Cq+85C0H4TDVMQzAN+IgAximVh2kJeX8SraylXifGdRBCr88ua1/DvKBEfD0zhw+vmWWJVDkh6RFUh3TCXRN0HTSvsqPbLHqZ4tV/LF37lAA+P7roA5SELzCOQIeVgX6sgmvGHmc3DnD+ksgOQGYIyvXjqd8/jKA5gcQ05c1dHxiTXoiknQ+RYQHKskbrrdYYtwtKWcRA5IP2fT3ig5ScBJRyZVxRyUDV/o7g8/I2m06EP4qdTXg3wu5L4ybQBQ4tMFvfJeysgEZZYvSaHEQpTMIQn0HEWYsxYpJxQuKG01fDlLywO/1IGN/KeCciSiX241R3ny/6NrB+ysvoYQYLuK7giDzFYQz8ZIxxj7XBUnU0jnOwmrp8VWyERFaHKQG30GKP/IdnwHTHqFFFey+xbeDlG5CRBqsFXwy6V9gPltXSTJlfYqIg2J1vFa2iFCZPl8l0KJMfPKdPYUp9cF8ygzubjZbOtfaDBYPtdLvQTSMb7EU32d2j+atNBelCrACxU4lDGUP8WKLsjOHOUN5gBdKiUItXWObL1V5be0/KHEp4RHNzMZjv6tkT51/j6Q6PkkgkTujHFEwnFcQv+ewMvMpN02lF+uUHNeg1FsYfHUtVDQqwFhS/kYQTg88PsbdHpsL+wIABJZZRoAKb+CjAAAU10lEQVTOmDQtDlKrZxCfFxW7mbgI0i3f/AAAyEvFi8S8IJNok40EVehqcJYivH4+CdDbgwon4Ks0Kr9E95lLb1RzcZRaHKRmzyDyF01M+Iu0gxRr4SG069qhqvFXzhGiqY5zAGMJwAcEcZRCfBfTpbrgbjTmxez+g1kCjgsyVsW9fmjh7r1jUbvmxaPSDhJJdSwg0I1BjOiDN0/A7d1NXZdtOn+q64M+NJLi5cS2SwAW0c2K4Mi71FvlAQlVOM5IKn0CMd8S5OF2MEMN50N6JOncRoQZMh8KA9+TdpBoKv2zEGOc+uu/SaQAh13Nyo/Rosucg6gBX2Xgi37oB6Vhvi9PmO8XjlPnOWNQB9GxgtToGSSa7LhX+u2LcbOcgzBTtD0toiKlYR2DfVS8hmHMzdox6TINwfrdk7tlece7PYOSBBwdUHY3CMsHg+MsnDN2Nl1FhOlBa/L50XU4ryAqEEDMfJGUg7SuWPtOz/P+5MfYodAwHiPw7KARpzp0a2l3ziygoDMOCigvw4TLs3FLYODuahrPGS8ahPM8xpOV9Byuh3RVdBNiPkfKQVRxhipNjPTfib6e58arNtpvyUrzamQo4U0JZECRNxP0fPICGHPY4CZiEjhTQRFctjHhmmzcusF3uLuOLVYq/WkGS9XpEFHfGduKaZya3URF2jtOJKYHZeWLmiFSDtKScn6gZQ8uq2l5+kAQo3pUKEoRcJx507yegLN0ylWWxfhWQ5O56I0LJhUwofb2lFvFFPItrm3tK+Ug0aTzvyC8V3niwmF8vrDtstseD0e8f6mtqfTRHni5LC6U/x4GpxQoksgbs7IzJwsAwF1tr3eQlCMqqE2SsjPzw26i7ZOyDvKadMwS0zIQPhv0LaHS4HoOzQ/mwHP83gxVkhfk79F253QwRNjHIUHkSPCuI9C8jB0TtcP3aHuzg0xYseZIwzNEDKFUY/BCEd3h20H87mP7ayFuRvZtbly3cVv3LKIC6FvQvXqlgd5ijMov1v1yXanTcn8vwaaKjMxmFX4fPBvAvLgSePje7CDRpLNYpWQDsXFMJjH5T74dxC+gWv9J7Ta9iZunTRHFIdG68vkDvHzDLQB93sfkByGpSqEWPwoWcMaM/PUietkPvW8apmV5alzs56Jir3aQlCOQQg/0bdciYeH8If7Ft4Oo3gSUS00VbwlMJHLF3ympuCz5cwbTrM5ErOIVp6xgGXoRLdw9tlnkIhwvw1eWVvKRUcjYWx0kkuz4AhHJJ+iVzh9yDpJyvkTA9yQneHMPanf5+h7M1LIi/SVmXA+ggKQdVhPJ9x74wqqfTwr5GenpPckhYmvZGmh8jKcM04h3Tp8s0g2kmt/tsY6HQrXEpHBQTVSrFYBwnhu3vhW+gxBecePWwYPNZp9Yp8ukZl2JmG8yRnlXV+N8UgraE3XygiaY/bN0YJT/JSzZyLeDaHgHUXMQ/Sm3pfyYnyl8Jhtc29oFju5/i6W2XP3Dta23+FFSa6zTIB2KyFoPfEXWblvhRy9ZmuJZzVgG8EdlefvRbyemJfs2mzcHLSsRZgGd/mMsFPwkSFX1AqA9mjeqcrVbXDKWunFrXu+4/DtIquOLBPqB5KS/4drW/jI8GmOdKnUbKLK2v/B9ljkTm0zcAII4jBuVOh/k70zAD8jsXqir6pLvM4iGlFs1B9G7xYom08p4bnkTsY3TLPFuUmj+HURtBdltuZL5aAqxTowbFG4gZLrpCRbGAx54bpDzSSnX4NLA17kBzhmDDXpvWkHGr3Qmm3mkpT6CXd7AT7jxtt1W/rAdZIdrW8rvHqW980UAFoT8ftJFwFLZzL9Sfb7bpV9p95y9fzJwcTYe+0EYgA++HUTHCpJyPtuDFHO33AeqaQVZ+VRjND9eBNMeKdd/73LBp7nxtt1KN/h2EFWEbB0IhOJ8gka6EcxfUBq4XyaGiF261F0f+zYWkzcQm9CHG7GcGCf7FT0A3XYw3TS6ofmGMCGD9hYHiaoXfwIYr7vrYwf2n3ffDqJaBVdnBdNqnk+YaNoeyCTLnFHRRlwMhljVlFfGkrP8GDnMr1RUNKADFtmF3g3YUUmWnmveQpjNjyv1tfvfg68gqj/gvXowaFrWjondwG7Nt4MILiWwBoOPc6e3PSZnsMGpq3U+AXCPyXTx+kQsXYKNEfXgA5W8FrBADNiubf2fTptUkuVn7nTkg0SVtljBbrEmJtOxPLF4HxpfyQ4D/P3/XNsqG4Qr6yCilMGg7xp7KEA0343HRH6D1lbF84kuvV8DeJEbt74TxjljUCXvXtUU7WzaWWkg9biCRJc549BAzwD81krjG+DveSZ6RzYeK1tVTMpBIinnlwR8SEoRou+48dg5UjwSxIXzSQNuAvA5CbaqkjJwfdPWbUteX3BkxTqBYSk2XFeQaMp5AsCHA9jtFte2Biw3KOUg0ZTzDQDnyygjsIWycSto/nbFLqsY31VRlz4E93iUm78hfvjfZZh000ZSL76dkH+mktx622K1JJ3vM+GMSuMa+O/0r9Fmc2ywCxJZBxHOIZxEquWaulqqBd/Tkkp/mcHi/eRNUkrqJX7eICQ649av9IqVlxZNpv8LBv/YT+68Fgcp5sJIHtLlQ00iKec+Aj4tb5F/cxDzZyoBFUo5SLG0mdchrRTjfDdhBS6f4Lff6sZ37aZVJ4MvDyuMxe/4BZ0KjKoOB4m0pz9PzD+U0VUm1KT1jtX7ejsb7g0ayiMS7DK2dVIlPaUcRAiLppx/Kfw6V61+et8BVyu+q9gnfY1NWpKdNnljJaOH+XcRWp8b23w5o3AVLdVq3UEiqTXvJxgiotxXfN9AgxcgEZ5pHO1nrlQc5EcqB+JqbrP6GybU80mVQKr9fOnRZPoCgK+RTosuCa9lB4mmOr6mqTrYNhh4lzvdet6PTaUdJJJ0bCKIwjNyjekrurBp5TouUTNTZEX6iwTc4Gc/7qOPP3jM0zck2qTznX3IliKZkHI+YKAwJ1OlGPsR67jmVUtSGvihMJpy3tMTynOnhrSB4joPOmWg3P1ytpN2ENUXdQDPuLb1jiATqIM36Pmkp8pWmoBFrm3JhnTrUH83GbIl1iopYDJZ4lG0Et1gf9d1BhGoko1dTdcyEA+iT19ecd2eta1FMvKkHUQIb0k5f2HgKJmOCrRMn3cTMdkbDulu/DAonE82EPGVmXjbMj/yw6QpFiT1RJbiHK395DDenWVtCiJT0UF21SgsvWuJd4lpGsJ5+gyFHnft2Mdkx6bkINGUIyZmqWxnYKx2E5ZyBSTp/nwwiCVc/LIQ8MEByRk3e10N126Ye+gGHyJDJSlBkl6pUmKtgmIZ17aCpQWrF3x9lRlLDMIJDJyo3YCEXxtN+RNVMkmVHEQV67S0Bzw7Y8e+q90IAQWW9rqiRPS7AEwUV49g/Nxo6L5ZV+JSEBVbU85JHgoRA0FTeMuqQUB7xrbsIDqWdhcK5ZaD9joo/6PNO0af8sq8g7er9KLkIKKjaMp5GMAJ0p0SXmncsu2woQy7kNZ5CBki7em3EbMIkgwSTlFpBJtNwzh6/fTJTiXCSn+PJtNfB/GsSnRV+vs9rm2dFqQvZQdRu63Ypeq3Xds6N4jiw523gKdFuWtkQ3sU7LKR2Tgxm5j8WwXePViiSefHWmo8BlSGgTuztvXlgGL8p9yW6yiqBspVEMXgE7N220NBBzDc+EVy0+bt3fMZdEngFN7Kxnkub+LTfXOwK7MMTtGScn7VU0bvA0HlBOJnWuAmYmI7GrgpryCi55b29Axmvk1RizdyTV2HVytGS1HH6rGJd5r29Bkkao7IphTIa9nJhCuyLbHbcTrl5dkH5ogmnRfCKhHnQ8+XDdApnXbszz5ofZEEcpDir13uH1w81Mo3wk/duCVymPfqVkKFFw997w7bEAy+jXc2XhHGjZzf1N4wxkjAz/I7G87UPa5ADiIGGkl2LCQiAZCm1piucROxK9SY65ureBvo3QiQqCsSeC4Gs4YIzjMM40IdB/GB+ukpj3FcT3mMR6s8K10ALnJt69Yw+g08KROTq/bJU9NLQe7lmWD3L0EWxmBrSWZLyrmEAYEmGRbye+9wnyOi2Zl47Jdhjz+Scq4jQJydqtNESb4Gb1Zm2pTVYXUY2EGEYqUcjO8EUNIzgFM6beuBADLqgrUESSoOkHIFXeRHVwy9f8O6fTCEFnmxA3NEU84fAByjU+YAshxmXJhNWNJl1WR10+IgotNoKv1Y8Bh9/lgtVIqSNaIf+lIpZ3HOCPM9o6RK9TCIe8dezNMwA4Wp+LDjFgZfLQrb+KDVQqLNQVra17yZ2RBL3T4BNOsmD5/NzLDuDyCjplgLQXfdTdcwF2KLzDCV04ESqapfNNVxDkAFRHTdTeRvMJDydjZ8S/chvJKu2hyksNUKdu3bq6vHhLOycUsWB7jSWKv790Lpg7U2g0VQYTTkzrXiDKvoqhzAOnBnHph/zqaZzE6b9EjVkWBKeml1kOJWyxG3GMepGLkvDxHNzMRjoiBm3bUSJKmI+j0iZOUzTHxpNt62MuR+BhXfklz7Libvjxp06ATRYwR+pCufe3jzjMMzGmQGEqHdQSYsXTfBGJX7S1CAtcKoCD81jO5ZtRAs6MfK41MdkwzQUgIq5jr7kTcoDWEpG8ZVftJGA/dVQUA01fEdgNTCOhhPweAHCPxoJj5Fh5NpHa52BymsIsudqTAgQISDwnMKcZsBXBHWPbcOawbJA5fuX5Rga6AFOsNDpHXowyDOWA1dTaIO4GhZOUQ4KxO3ZKuWyXYTiD4UBxEala4z7w2k3e7MzxiEObUApdOrlqi7sXX0jlkGcKFyNIF/Az1f2naG/p7hXyWxpVbNFaffuHbsWJm+hoI2NAcpOEnxMUzEFulrxE+A6bJqY9v2HUBhxWgeO4eJRebbrnJd+ga5m6QMgy+rBSih/uOLrnCOgIdVKuOWzQ1X6UMHT6gOIhQMHIoy8CgfMQg3VnNFEfn4efJmEkHstwtlgsNsRHQjd/OSoGmwYekYTXX8BqD3KcjflWKrwFtVltAdpOAk7U6cGKmQRraVgScM4ic4T0+4MyylX7SBdCvkf+e8j4FoWtCHUInx1wRk6WD6RtqdM4jxfYkx9SW9sKf68S2KvFVlq4qDFLdbBUjQIOEofg2TBfDHnuI2TwP8p5znPb1x5mHr/DCL4ME842AG3sbE/w3gPWD8hx9eHTSiNIJHNHOPuiQ6hGuUIV7NeacpHu9Uori3GqPyB6jkh2scgm9RVXOQ4nbL+RQRxANg6NuTMhYQiIdbesq5bWXCFgK2EIMZbAJ0YBViowablGJpBLvt275nbggJIynnzp7X7TMVVbjVta25irxVZ6uqg4jRFYss8kMATan6aGuvw+0A3TzabL4+zBJsOocdSXUsINCNijK35pq6DqmnJLmqO4gwrLgF6h479k6AT1U0dP2zEf0Q3bywKiXYNFkr0t5xIjGJiGu174b4CjfeJvLs66apDVTT8AL+GmnSospiGE8R84zMjDYRGl43rVRj5PcB8ldea94xepIq/M5QGWpIHUQMuiXZcTgT3QVgyGFJQ56El5lwSXZ67K6hCrxTHV8JYeVpBVT/XV0y8fShjhlTGf+QO0iv0tFkej6IxfIrHbKgMvAq8mwH8fXjRjd+7e/nHFqx0mwV9fLVVakmjCjCGqTkwCrXtt7mq8MaI6oZBxF2KQX73TEoDGiNGXAwdQj4PpndC+sl2LL/WEr1OMSZY0Igs3t4m+73qUD6SDDXlIPsWk1WdHyMPbpEumCoxMBDJ2V+2E20fTL0fkLqoCXZcTYTBb921ohRFdJQBxVbkw7Sq3Epz2ABgLqEBmLgV+yZZ2+YMUmAWtRFG596KdKArmU9ZR6+FFRhMf6sbclVRQ7aqWb+mnaQ3rEW9sHMi8B8eoBbFM2m8y1OnDsurYfQilL4iMABbvE9uoEJNyGHqfV0jV1uKHXhILsUX+aMammgE8B8Wk95aZGUNBQv8mrfDuMp9oxzszMnP6smIDyu1pXPH+DlG0UYUOBM0JKWOSL6eDWghsKzSlFyfTlIP2sUSgIQfR7g92sqqxa2vSFqkTRw13XrE1NF2MuQNlGshk1cRARR3lvb7SETvlT3mAKlmalrB+n7de27/IWWhoamdxPnjyamdzFwNAARYyXVCFjPoNVgdkB4BczvBNEnpIRUJt4Mxu3I49ah2IKUrm4XhoIcX+eH8v5TN2wcZKBvUoSrm9jZTLmmsTkymgn5ZoP2/LX0GDuMUflV5aJMo0nnNBDCqUnIeIwJdzZt3XZf2DVToiuc98KDSPL6TGUfVqBgWuYmYrMVOGuWZdg7iC7LlyKRw0R+FIf5Bw3g+7oQJkuVwD4gQCS4WOxIx+G7rEmJcUMmYVUPdlTXxFaQM+IgEoaOJtPHg/gRCZYgpH8l4DmP+VkQVrHX8Nxg18WtqdVTAHOKR2SBvXcCxnsAfmsQBSR4L3Bt65sS9HVDOuIgklM1od05ymAITNg3S7IOR/ItBtNJnYnYk8NxcGJMIw6iMLMlqJsfarwWVdBiyFleYpgnZe1JfxtyTUJUYMRBVI3LTC3tzqUMEtCioWLuqqoYGh/jbhNd59XCVXVoYywJHnGQgBaekHI+YAI/UczPDth71dm3EPPMTKKtGtgCVR9cuQ5HHETDNBRui8BJMAKVHNagSmgiGPhzg2F8IcwKVaEpH0DwiIMEMF5/1gnLO441DNw+zPLt/0nMl2Vs67v1luilY2pHHESHFfvJiKSci0qlyMaHIL5aIneA+Lrm7WNuqrc0WZ0GGnEQndbsIyu6zBkHk0SW5DwAY0PqJgyxO5jxzcYm89o3Lpj0ehgd1JPMEQcJebbElbDZ1XQhMc4DYf+Quwsi/h890GVfRw7frFWo0yCDU+UdcRBVyynwFV7iDT6vxg7zj4ra6Vm77SGFIQ17lhEHGYIpLpXOPqEUIyXScsNGiO87SlHL4xEietjwdj62N7xlBJniEQcJYj1NvK3tzgc9xrFgvA+E9wYshFpOq98R8FCe+ZENiba/alJ7rxAz4iA1OM2tqfTReYIIOjwYTIfAwMHE3AJQFIRxYIjbsf7ZlA6ANDPWEomqsOyQQevc6dbzNTjEulHp/wP2zm76PfIpnAAAAABJRU5ErkJggg==;" vertex="1" parent="1">
          <mxGeometry x="145" y="370" width="50" height="50" as="geometry" />
        </mxCell>
        <mxCell id="3Kr9bvv33sOtzox7E3u9-18" style="edgeStyle=orthogonalEdgeStyle;rounded=0;orthogonalLoop=1;jettySize=auto;html=1;entryX=0.5;entryY=0;entryDx=0;entryDy=0;" edge="1" parent="1" source="3Kr9bvv33sOtzox7E3u9-9" target="3Kr9bvv33sOtzox7E3u9-5">
          <mxGeometry relative="1" as="geometry">
            <Array as="points">
              <mxPoint x="600" y="160" />
              <mxPoint x="170" y="160" />
            </Array>
          </mxGeometry>
        </mxCell>
        <mxCell id="3Kr9bvv33sOtzox7E3u9-25" style="edgeStyle=orthogonalEdgeStyle;rounded=0;orthogonalLoop=1;jettySize=auto;html=1;exitX=1;exitY=0.5;exitDx=0;exitDy=0;dashed=1;" edge="1" parent="1" source="3Kr9bvv33sOtzox7E3u9-9">
          <mxGeometry relative="1" as="geometry">
            <mxPoint x="730" y="225" as="targetPoint" />
          </mxGeometry>
        </mxCell>
        <mxCell id="3Kr9bvv33sOtzox7E3u9-9" value="行动节点&lt;div&gt;Action&lt;/div&gt;" style="ellipse;whiteSpace=wrap;html=1;fillColor=#dae8fc;strokeColor=#6c8ebf;" vertex="1" parent="1">
          <mxGeometry x="540" y="190" width="120" height="70" as="geometry" />
        </mxCell>
        <mxCell id="3Kr9bvv33sOtzox7E3u9-10" value="END" style="ellipse;whiteSpace=wrap;html=1;" vertex="1" parent="1">
          <mxGeometry x="550" y="320" width="120" height="70" as="geometry" />
        </mxCell>
        <mxCell id="3Kr9bvv33sOtzox7E3u9-15" style="rounded=0;orthogonalLoop=1;jettySize=auto;html=1;exitX=1;exitY=0.5;exitDx=0;exitDy=0;entryX=0;entryY=0;entryDx=0;entryDy=0;" edge="1" parent="1" source="3Kr9bvv33sOtzox7E3u9-11" target="3Kr9bvv33sOtzox7E3u9-10">
          <mxGeometry relative="1" as="geometry" />
        </mxCell>
        <mxCell id="3Kr9bvv33sOtzox7E3u9-11" value="" style="rhombus;whiteSpace=wrap;html=1;fillColor=#ffe6cc;strokeColor=#d79b00;" vertex="1" parent="1">
          <mxGeometry x="330" y="245" width="100" height="100" as="geometry" />
        </mxCell>
        <mxCell id="3Kr9bvv33sOtzox7E3u9-12" value="条件边：&lt;div&gt;需要action?&lt;/div&gt;" style="text;html=1;align=center;verticalAlign=middle;whiteSpace=wrap;rounded=0;" vertex="1" parent="1">
          <mxGeometry x="340" y="200" width="80" height="50" as="geometry" />
        </mxCell>
        <mxCell id="3Kr9bvv33sOtzox7E3u9-14" style="rounded=0;orthogonalLoop=1;jettySize=auto;html=1;entryX=0.037;entryY=0.614;entryDx=0;entryDy=0;entryPerimeter=0;" edge="1" parent="1">
          <mxGeometry relative="1" as="geometry">
            <mxPoint x="429.9966325178838" y="293.3266325178839" as="sourcePoint" />
            <mxPoint x="558.1300000000001" y="245.00000000000003" as="targetPoint" />
          </mxGeometry>
        </mxCell>
        <mxCell id="3Kr9bvv33sOtzox7E3u9-16" value="Yes" style="text;html=1;align=center;verticalAlign=middle;whiteSpace=wrap;rounded=0;" vertex="1" parent="1">
          <mxGeometry x="460" y="230" width="80" height="50" as="geometry" />
        </mxCell>
        <mxCell id="3Kr9bvv33sOtzox7E3u9-17" value="No" style="text;html=1;align=center;verticalAlign=middle;whiteSpace=wrap;rounded=0;" vertex="1" parent="1">
          <mxGeometry x="470" y="310" width="80" height="50" as="geometry" />
        </mxCell>
        <mxCell id="3Kr9bvv33sOtzox7E3u9-19" value="普通边：Acton完成得结果总是让LLM来决定下一步行动" style="text;html=1;align=center;verticalAlign=middle;whiteSpace=wrap;rounded=0;" vertex="1" parent="1">
          <mxGeometry x="300" y="110" width="190" height="50" as="geometry" />
        </mxCell>
        <mxCell id="3Kr9bvv33sOtzox7E3u9-20" style="edgeStyle=orthogonalEdgeStyle;rounded=0;orthogonalLoop=1;jettySize=auto;html=1;" edge="1" parent="1">
          <mxGeometry relative="1" as="geometry">
            <mxPoint x="8" y="294.5" as="sourcePoint" />
            <mxPoint x="108" y="294.5" as="targetPoint" />
          </mxGeometry>
        </mxCell>
        <mxCell id="3Kr9bvv33sOtzox7E3u9-22" value="入口边：entry" style="text;html=1;align=center;verticalAlign=middle;whiteSpace=wrap;rounded=0;" vertex="1" parent="1">
          <mxGeometry x="20" y="245" width="80" height="50" as="geometry" />
        </mxCell>
        <mxCell id="3Kr9bvv33sOtzox7E3u9-26" value="状态{stage}属性：&lt;div&gt;{&lt;/div&gt;&lt;div&gt;input {输入信息}&lt;/div&gt;&lt;div&gt;chat_history（历史对话）&lt;/div&gt;&lt;div&gt;agent_outcome（推理节点得输出类型，用于条件边判断）&lt;/div&gt;&lt;div&gt;intermediate_steps（中间行动步骤）&lt;/div&gt;&lt;div&gt;&lt;span style=&quot;background-color: transparent; color: light-dark(rgb(0, 0, 0), rgb(255, 255, 255));&quot;&gt;}&lt;/span&gt;&lt;/div&gt;" style="text;html=1;align=center;verticalAlign=middle;whiteSpace=wrap;rounded=0;" vertex="1" parent="1">
          <mxGeometry x="300" y="370" width="320" height="120" as="geometry" />
        </mxCell>
        <mxCell id="3Kr9bvv33sOtzox7E3u9-27" value="AI Agent" style="text;html=1;align=center;verticalAlign=middle;resizable=0;points=[];autosize=1;strokeColor=none;fillColor=none;fontStyle=1;fontSize=15;" vertex="1" parent="1">
          <mxGeometry x="115" y="20" width="80" height="30" as="geometry" />
        </mxCell>
      </root>
    </mxGraphModel>
  </diagram>
</mxfile>
